<mxfile host="app.diagrams.net" agent="Mozilla/5.0 (Windows NT 10.0; Win64; x64) AppleWebKit/537.36 (KHTML, like Gecko) Chrome/128.0.0.0 Safari/537.36" version="24.7.8">
  <diagram name="MoviesService" id="2xIK8XuZhvhnRp8aaEZR">
    <mxGraphModel dx="602" dy="526" grid="1" gridSize="10" guides="1" tooltips="1" connect="1" arrows="1" fold="1" page="1" pageScale="1" pageWidth="2339" pageHeight="3300" math="0" shadow="0">
      <root>
        <mxCell id="0" />
        <mxCell id="1" parent="0" />
        <mxCell id="_9FqGdqbtg_ljxKxVT13-1" value="Dtos" style="rounded=1;whiteSpace=wrap;html=1;" vertex="1" parent="1">
          <mxGeometry x="860" y="470" width="120" height="60" as="geometry" />
        </mxCell>
        <mxCell id="_9FqGdqbtg_ljxKxVT13-3" value="Models" style="rounded=1;whiteSpace=wrap;html=1;" vertex="1" parent="1">
          <mxGeometry x="860" y="570" width="120" height="60" as="geometry" />
        </mxCell>
        <mxCell id="_9FqGdqbtg_ljxKxVT13-4" value="DB Content" style="rounded=1;whiteSpace=wrap;html=1;" vertex="1" parent="1">
          <mxGeometry x="1040" y="570" width="120" height="60" as="geometry" />
        </mxCell>
        <mxCell id="_9FqGdqbtg_ljxKxVT13-5" value="Repository" style="rounded=1;whiteSpace=wrap;html=1;" vertex="1" parent="1">
          <mxGeometry x="1040" y="460" width="120" height="60" as="geometry" />
        </mxCell>
        <mxCell id="_9FqGdqbtg_ljxKxVT13-6" value="SQL Server DB" style="rounded=1;whiteSpace=wrap;html=1;" vertex="1" parent="1">
          <mxGeometry x="1040" y="670" width="120" height="60" as="geometry" />
        </mxCell>
        <mxCell id="_9FqGdqbtg_ljxKxVT13-8" value="Controller" style="rounded=1;whiteSpace=wrap;html=1;" vertex="1" parent="1">
          <mxGeometry x="1040" y="360" width="120" height="60" as="geometry" />
        </mxCell>
        <mxCell id="_9FqGdqbtg_ljxKxVT13-9" value="" style="endArrow=classic;startArrow=classic;html=1;rounded=0;entryX=0.5;entryY=1;entryDx=0;entryDy=0;exitX=0.5;exitY=0;exitDx=0;exitDy=0;" edge="1" parent="1" source="_9FqGdqbtg_ljxKxVT13-5" target="_9FqGdqbtg_ljxKxVT13-8">
          <mxGeometry width="50" height="50" relative="1" as="geometry">
            <mxPoint x="990" y="590" as="sourcePoint" />
            <mxPoint x="1040" y="540" as="targetPoint" />
          </mxGeometry>
        </mxCell>
        <mxCell id="_9FqGdqbtg_ljxKxVT13-10" value="" style="endArrow=classic;startArrow=classic;html=1;rounded=0;entryX=0.5;entryY=1;entryDx=0;entryDy=0;exitX=0.5;exitY=0;exitDx=0;exitDy=0;" edge="1" parent="1" source="_9FqGdqbtg_ljxKxVT13-4" target="_9FqGdqbtg_ljxKxVT13-5">
          <mxGeometry width="50" height="50" relative="1" as="geometry">
            <mxPoint x="1110" y="530" as="sourcePoint" />
            <mxPoint x="1110" y="430" as="targetPoint" />
          </mxGeometry>
        </mxCell>
        <mxCell id="_9FqGdqbtg_ljxKxVT13-11" value="" style="endArrow=classic;startArrow=classic;html=1;rounded=0;entryX=0.5;entryY=0;entryDx=0;entryDy=0;exitX=0.5;exitY=1;exitDx=0;exitDy=0;" edge="1" parent="1" source="_9FqGdqbtg_ljxKxVT13-4" target="_9FqGdqbtg_ljxKxVT13-6">
          <mxGeometry width="50" height="50" relative="1" as="geometry">
            <mxPoint x="1110" y="580" as="sourcePoint" />
            <mxPoint x="1110" y="530" as="targetPoint" />
          </mxGeometry>
        </mxCell>
        <mxCell id="_9FqGdqbtg_ljxKxVT13-12" value="" style="endArrow=classic;startArrow=classic;html=1;rounded=0;entryX=0;entryY=0.5;entryDx=0;entryDy=0;exitX=1;exitY=0.5;exitDx=0;exitDy=0;" edge="1" parent="1" source="_9FqGdqbtg_ljxKxVT13-3" target="_9FqGdqbtg_ljxKxVT13-4">
          <mxGeometry width="50" height="50" relative="1" as="geometry">
            <mxPoint x="1110" y="640" as="sourcePoint" />
            <mxPoint x="1110" y="700" as="targetPoint" />
          </mxGeometry>
        </mxCell>
        <mxCell id="_9FqGdqbtg_ljxKxVT13-13" value="" style="endArrow=classic;startArrow=classic;html=1;rounded=0;entryX=0.5;entryY=1;entryDx=0;entryDy=0;exitX=0.5;exitY=0;exitDx=0;exitDy=0;" edge="1" parent="1" source="_9FqGdqbtg_ljxKxVT13-3" target="_9FqGdqbtg_ljxKxVT13-1">
          <mxGeometry width="50" height="50" relative="1" as="geometry">
            <mxPoint x="990" y="700" as="sourcePoint" />
            <mxPoint x="1050" y="610" as="targetPoint" />
          </mxGeometry>
        </mxCell>
        <mxCell id="_9FqGdqbtg_ljxKxVT13-14" value="Grpc Service" style="rounded=1;whiteSpace=wrap;html=1;" vertex="1" parent="1">
          <mxGeometry x="1180" y="360" width="120" height="60" as="geometry" />
        </mxCell>
        <mxCell id="_9FqGdqbtg_ljxKxVT13-15" value="" style="endArrow=classic;startArrow=classic;html=1;rounded=0;entryX=0.5;entryY=1;entryDx=0;entryDy=0;exitX=1;exitY=0.5;exitDx=0;exitDy=0;" edge="1" parent="1" source="_9FqGdqbtg_ljxKxVT13-5" target="_9FqGdqbtg_ljxKxVT13-14">
          <mxGeometry width="50" height="50" relative="1" as="geometry">
            <mxPoint x="1110" y="470" as="sourcePoint" />
            <mxPoint x="1110" y="430" as="targetPoint" />
            <Array as="points">
              <mxPoint x="1240" y="490" />
            </Array>
          </mxGeometry>
        </mxCell>
      </root>
    </mxGraphModel>
  </diagram>
</mxfile>
